<svg width="445" height="86" xmlns="http://www.w3.org/2000/svg" xmlns:xlink="http://www.w3.org/1999/xlink" overflow="hidden"><defs><clipPath id="clip0"><rect x="418" y="376" width="445" height="86"/></clipPath></defs><g clip-path="url(#clip0)" transform="translate(-418 -376)"><path d="M541.112 385.483C546.305 385.483 551.252 386.532 555.752 388.43L559.5 390.458 559.5 455.508 555.752 457.536C551.252 459.434 546.305 460.483 541.112 460.483 520.34 460.483 503.5 443.694 503.5 422.983 503.5 402.272 520.34 385.483 541.112 385.483Z" stroke="#000000" stroke-width="1.33333" stroke-miterlimit="8" fill-rule="evenodd"/><path d="M568.5 385.483 581.911 385.483 581.911 394.463 585.034 391.888C591.019 387.844 598.234 385.483 606 385.483 626.711 385.483 643.5 402.272 643.5 422.983L643.5 422.984 643.5 460.483 606.001 460.483 606 460.483 605.999 460.483 568.5 460.483 568.5 460.483 568.5 460.483Z" stroke="#000000" stroke-width="1.33333" stroke-miterlimit="8" fill-rule="evenodd"/><path d="M690.114 385.483C695.303 385.483 700.255 386.532 704.755 388.43L708.5 390.458 708.5 455.508 704.755 457.536C700.255 459.434 695.303 460.483 690.114 460.483 669.339 460.483 652.5 443.694 652.5 422.983 652.5 402.272 669.339 385.483 690.114 385.483Z" stroke="#000000" stroke-width="1.33333" stroke-miterlimit="8" fill-rule="evenodd"/><path d="M717.5 385.483 730.912 385.483 730.912 394.463 734.034 391.888C740.02 387.844 747.236 385.483 755 385.483 775.709 385.483 792.5 402.272 792.5 422.983L792.5 422.984 792.5 460.483 755 460.483 755 460.483 755 460.483 717.5 460.483 717.5 460.483 717.5 460.483Z" stroke="#000000" stroke-width="1.33333" stroke-miterlimit="8" fill-rule="evenodd"/><path d="M839.114 385.483C844.303 385.483 849.255 386.532 853.755 388.43L857.5 390.458 857.5 455.508 853.755 457.536C849.255 459.434 844.303 460.483 839.114 460.483 818.34 460.483 801.5 443.694 801.5 422.983 801.5 402.272 818.34 385.483 839.114 385.483Z" stroke="#000000" stroke-width="1.33333" stroke-miterlimit="8" fill-rule="evenodd"/><path d="M464.319 422.854 464.319 422.983 464.319 422.983 464.319 423.112 466.249 422.983ZM419.5 385.483 464.319 385.483 464.319 385.612 466.249 385.483C481.851 385.483 494.5 393.877 494.5 404.233 494.5 413.294 484.816 420.854 471.943 422.602L466.249 422.983 471.943 423.364C484.816 425.112 494.5 432.672 494.5 441.733 494.5 452.088 481.851 460.483 466.249 460.483L464.319 460.354 464.319 460.483 419.5 460.483 419.5 422.983 419.5 422.983Z" stroke="#000000" stroke-width="1.33333" stroke-miterlimit="8" fill-rule="evenodd"/><path d="M545.783 378.483C551.069 378.483 556.105 379.532 560.685 381.43L564.5 383.458 564.5 448.508 560.685 450.536C556.105 452.434 551.069 453.483 545.783 453.483 524.64 453.483 507.5 436.694 507.5 415.983 507.5 395.272 524.64 378.483 545.783 378.483Z" stroke="#FECD07" stroke-width="1.33333" stroke-miterlimit="8" fill="#FECD07" fill-rule="evenodd"/><path d="M572.5 378.483 585.911 378.483 585.911 387.463 589.034 384.888C595.019 380.844 602.234 378.483 610 378.483 630.711 378.483 647.5 395.272 647.5 415.983L647.5 415.984 647.5 453.483 610.001 453.483 610 453.483 609.999 453.483 572.5 453.483 572.5 453.483 572.5 453.483Z" stroke="#FECD07" stroke-width="1.33333" stroke-miterlimit="8" fill="#FECD07" fill-rule="evenodd"/><path d="M694.114 378.483C699.303 378.483 704.255 379.532 708.755 381.43L712.5 383.458 712.5 448.508 708.755 450.536C704.255 452.434 699.303 453.483 694.114 453.483 673.339 453.483 656.5 436.694 656.5 415.983 656.5 395.272 673.339 378.483 694.114 378.483Z" stroke="#FECD07" stroke-width="1.33333" stroke-miterlimit="8" fill="#FECD07" fill-rule="evenodd"/><path d="M721.5 378.483 734.912 378.483 734.912 387.463 738.034 384.888C744.02 380.844 751.236 378.483 759 378.483 779.709 378.483 796.5 395.272 796.5 415.983L796.5 415.984 796.5 453.483 759 453.483 759 453.483 759 453.483 721.5 453.483 721.5 453.483 721.5 453.483Z" stroke="#FECD07" stroke-width="1.33333" stroke-miterlimit="8" fill="#FECD07" fill-rule="evenodd"/><path d="M843.437 378.483C848.541 378.483 853.397 379.532 857.818 381.43L861.5 383.458 861.5 448.508 857.818 450.536C853.397 452.434 848.541 453.483 843.437 453.483 823.04 453.483 806.5 436.694 806.5 415.983 806.5 395.272 823.04 378.483 843.437 378.483Z" stroke="#FECD07" stroke-width="1.33333" stroke-miterlimit="8" fill="#FECD07" fill-rule="evenodd"/><path d="M468.917 415.854 468.917 415.983 468.917 415.983 468.917 416.112 470.872 415.983ZM423.5 378.483 468.917 378.483 468.917 378.612 470.872 378.483C486.683 378.483 499.5 386.877 499.5 397.233 499.5 406.294 489.687 413.854 476.642 415.602L470.872 415.983 476.642 416.364C489.687 418.112 499.5 425.672 499.5 434.733 499.5 445.088 486.683 453.483 470.872 453.483L468.917 453.354 468.917 453.483 423.5 453.483 423.5 415.983 423.5 415.983Z" stroke="#FECD07" stroke-width="1.33333" stroke-miterlimit="8" fill="#FECD07" fill-rule="evenodd"/></g></svg>