<svg width="230" height="153" xmlns="http://www.w3.org/2000/svg" xmlns:xlink="http://www.w3.org/1999/xlink" overflow="hidden"><defs><clipPath id="clip0"><rect x="530" y="220" width="230" height="153"/></clipPath></defs><g clip-path="url(#clip0)" transform="translate(-530 -220)"><path d="M756.5 338.073 755.645 338.779C745.747 345.552 712.712 353.413 695.357 349.368 678.001 345.325 659.726 327.654 651.512 314.514 643.299 301.374 645.789 280.871 646.075 270.531 646.36 260.19 649.898 254.565 653.225 252.474 658.52 253.827 662.934 256.746 665.405 260.852 667.877 264.959 659.711 261.908 668.05 277.111 676.39 292.314 706.633 330.206 743.51 332.79L756.5 338.073Z" stroke="#FECD07" stroke-width="3" stroke-miterlimit="8" fill="#FECD07" fill-rule="evenodd"/><path d="M100.283 0.0020854 100.95 0.957857C107.193 11.8819 112.426 46.9735 106.525 64.6508 100.624 82.3282 80.2159 99.6979 65.5431 107.022 50.8703 114.345 29.4047 109.851 18.4888 108.594 7.57296 107.338 1.95018 103.136 0.0479642 99.4805 1.97378 94.0994 5.47626 89.7779 10.0525 87.5889 14.6287 85.3999 10.6372 93.6097 27.5054 86.3471 44.3737 79.0842 87.2986 51.1433 93.4779 13.0228L100.283 0.0020854Z" stroke="#FECD07" stroke-width="3" stroke-miterlimit="8" fill="#FECD07" fill-rule="evenodd" transform="matrix(-0.198454 0.98011 0.98011 0.198454 553.231 230.317)"/><path d="M0.0491715 119.544 14.0245 121.087 15.7202 105.73 32.6898 104.805 32.873 104.936C35.8808 106.601 40.0155 107.966 45.4734 108.594 56.3893 109.851 77.8549 114.345 92.5277 107.022 107.201 99.6979 127.608 82.3281 133.509 64.6508 139.411 46.9735 134.178 11.882 127.935 0.957747L127.268 0.00197564 120.462 13.0227C114.284 51.1433 71.3583 79.0842 54.49 86.3469 37.6218 93.6098 41.6134 85.3999 37.0372 87.5889 35.893 88.1361 34.8161 88.8166 33.8141 89.6137L31.1559 92.2247 17.127 92.9903 18.8801 77.1149 4.90497 75.5717Z" stroke="#FECD07" stroke-width="3" stroke-miterlimit="8" fill="#FECD07" fill-rule="evenodd" transform="matrix(0.161514 0.98687 0.98687 -0.161514 551.446 241.98)"/></g></svg>