<svg width="208" height="118" xmlns="http://www.w3.org/2000/svg" xmlns:xlink="http://www.w3.org/1999/xlink" overflow="hidden"><defs><clipPath id="clip0"><rect x="730" y="183" width="208" height="118"/></clipPath></defs><g clip-path="url(#clip0)" transform="translate(-730 -183)"><path d="M843.279 204.695 826.245 209.44 827.756 214.842 833.906 213.129 834.23 216.125 832.685 216.621C831.757 217.121 830.959 217.782 830.349 218.59 829.128 220.206 832.661 219.295 828.477 225.315 824.294 231.335 809.941 245.906 794.515 245.304L788.873 246.934 789.195 247.271C792.98 250.576 806.314 255.4 813.708 254.493L818.63 253.067 817.719 254.037C815.129 256.162 812.232 257.892 809.03 258.962L804.333 262.48 804.753 262.681C809.466 264.435 823.647 264.234 830.24 260.772 833.536 259.041 836.568 255.887 839.019 252.385L841.698 247.881 843.38 249.537C846.495 252.18 850.069 254.366 853.55 255.179 860.513 256.807 873.766 253.643 877.736 250.917L878.079 250.633 872.868 248.506C859.923 247.596 849.016 235.804 844.25 228.771L842.89 226.571 841.892 223.283 841.179 221.387 841.182 221.147C841.459 220.482 842.03 220.376 841.535 219.549 841.039 218.723 840.348 218.016 839.516 217.447L839.455 217.42 838.841 211.754 844.79 210.097ZM784 184 884 184 884 241.5 934 241.5 834 299 734 241.5 784 241.5Z" stroke="#7F7F7F" stroke-width="2" stroke-miterlimit="8" fill="#595959" fill-rule="evenodd" fill-opacity="0.34902"/></g></svg>