<svg width="155" height="155" xmlns="http://www.w3.org/2000/svg" xmlns:xlink="http://www.w3.org/1999/xlink" overflow="hidden"><defs><clipPath id="clip0"><rect x="25" y="297" width="155" height="155"/></clipPath></defs><g clip-path="url(#clip0)" transform="translate(-25 -297)"><path d="M28 374.5C28 333.355 61.5786 300 103 300 144.421 300 178 333.355 178 374.5 178 415.645 144.421 449 103 449 61.5786 449 28 415.645 28 374.5Z" stroke="#000000" stroke-width="4" stroke-miterlimit="8" fill-rule="evenodd"/><path d="M67 338 100 321 136 332 166 379 151 408 83 428 49 398 52 356 67 338Z" stroke="#FFFFFF" stroke-width="4" stroke-miterlimit="8" fill="#FECD07" fill-rule="evenodd"/><path d="M113.432 334.722 93.5333 340.235 95.2986 346.511 102.483 344.521 102.862 348.004 101.065 348.579C99.9806 349.159 99.0485 349.927 98.3355 350.866 96.9095 352.743 101.037 351.685 96.1495 358.679 91.262 365.673 74.4952 382.602 56.4746 381.902L49.8843 383.796 50.26 384.187C54.6814 388.027 70.2579 393.632 78.8959 392.577L84.9829 390.824 84.8487 390.962C81.5075 393.927 77.6985 396.35 73.4228 397.769L67.9354 401.857 68.4263 402.09C73.9315 404.128 90.4988 403.895 98.2004 399.872 102.051 397.861 105.593 394.197 108.456 390.128L111.574 384.915 113.556 386.855C117.195 389.925 121.369 392.464 125.436 393.41 133.57 395.301 149.051 391.625 153.69 388.457L154.091 388.127 148.004 385.656C132.881 384.599 120.139 370.9 114.572 362.729L112.995 360.191 111.812 356.318 110.984 354.129 110.988 353.87C111.311 353.098 111.978 352.975 111.399 352.015 110.82 351.055 110.014 350.233 109.041 349.573L108.969 349.541 108.248 342.924 115.197 340.999ZM103 309C139.451 309 169 338.325 169 374.5 169 410.675 139.451 440 103 440 66.5492 440 37 410.675 37 374.5 37 338.325 66.5492 309 103 309Z" stroke="#000000" stroke-width="4" stroke-miterlimit="8" fill="#FFFFFF" fill-rule="evenodd"/></g></svg>