<svg width="154" height="155" xmlns="http://www.w3.org/2000/svg" xmlns:xlink="http://www.w3.org/1999/xlink" overflow="hidden"><defs><clipPath id="clip0"><rect x="91" y="479" width="154" height="155"/></clipPath></defs><g clip-path="url(#clip0)" transform="translate(-91 -479)"><path d="M93 556.5C93 515.355 126.579 482 168 482 209.421 482 243 515.355 243 556.5 243 597.645 209.421 631 168 631 126.579 631 93 597.645 93 556.5Z" stroke="#000000" stroke-width="4" stroke-miterlimit="8" fill-rule="evenodd"/><path d="M132 520 165 503 201 514 231 561 216 590 148 610 114 580 117 538 132 520Z" stroke="#FFFFFF" stroke-width="4" stroke-miterlimit="8" fill="#FFFFFF" fill-rule="evenodd"/><path d="M178.432 520.722 158.533 526.235 160.299 532.511 167.483 530.521 167.862 534.004 166.065 534.579C164.981 535.159 164.049 535.927 163.335 536.866 161.91 538.743 166.037 537.685 161.149 544.679 156.262 551.673 139.495 568.602 121.475 567.902L114.884 569.796 115.26 570.187C119.681 574.027 135.258 579.632 143.896 578.577L149.983 576.824 149.849 576.962C146.508 579.927 142.698 582.35 138.423 583.769L132.935 587.857 133.426 588.09C138.932 590.128 155.499 589.895 163.2 585.872 167.051 583.861 170.593 580.197 173.456 576.128L176.574 570.915 178.556 572.855C182.195 575.925 186.369 578.464 190.436 579.41 198.57 581.301 214.051 577.625 218.69 574.457L219.091 574.127 213.004 571.656C197.881 570.599 185.139 556.9 179.572 548.729L177.995 546.191 176.812 542.318 175.984 540.129 175.988 539.87C176.311 539.098 176.978 538.975 176.399 538.015 175.82 537.055 175.014 536.233 174.041 535.573L173.969 535.541 173.248 528.924 180.197 526.999ZM168 495C204.451 495 234 524.325 234 560.5 234 596.675 204.451 626 168 626 131.549 626 102 596.675 102 560.5 102 524.325 131.549 495 168 495Z" fill-rule="evenodd"/><path d="M178.432 516.722 158.533 522.235 160.299 528.511 167.483 526.521 167.862 530.004 166.065 530.579C164.981 531.159 164.049 531.927 163.335 532.866 161.91 534.743 166.037 533.685 161.149 540.679 156.262 547.673 139.495 564.602 121.475 563.902L114.884 565.796 115.26 566.187C119.681 570.027 135.258 575.632 143.896 574.577L149.983 572.824 149.849 572.962C146.508 575.927 142.698 578.35 138.423 579.769L132.935 583.857 133.426 584.09C138.932 586.128 155.499 585.895 163.2 581.872 167.051 579.861 170.593 576.197 173.456 572.128L176.574 566.915 178.556 568.855C182.195 571.925 186.369 574.464 190.436 575.41 198.57 577.301 214.051 573.625 218.69 570.457L219.091 570.127 213.004 567.656C197.881 566.599 185.139 552.9 179.572 544.729L177.995 542.191 176.812 538.318 175.984 536.129 175.988 535.87C176.311 535.098 176.978 534.975 176.399 534.015 175.82 533.055 175.014 532.233 174.041 531.573L173.969 531.541 173.248 524.924 180.197 522.999ZM168 491C204.451 491 234 520.325 234 556.5 234 592.675 204.451 622 168 622 131.549 622 102 592.675 102 556.5 102 520.325 131.549 491 168 491Z" fill="#FECD07" fill-rule="evenodd"/></g></svg>