<svg width="1256" height="247" xmlns="http://www.w3.org/2000/svg" xmlns:xlink="http://www.w3.org/1999/xlink" overflow="hidden"><defs><clipPath id="clip0"><rect x="2" y="243" width="1256" height="247"/></clipPath></defs><g clip-path="url(#clip0)" transform="translate(-2 -243)"><path d="M782.575 265.5C790.179 265.5 797.423 267.053 804.012 269.862L809.5 272.863 809.5 369.137 804.012 372.139C797.423 374.947 790.179 376.5 782.575 376.5 752.158 376.5 727.5 351.652 727.5 321 727.5 290.348 752.158 265.5 782.575 265.5Z" stroke="#FFFFFF" stroke-width="1.33333" stroke-miterlimit="8" fill="#FFFFFF" fill-rule="evenodd"/><path d="M823.5 265.5 843.349 265.5 843.349 278.791 847.97 274.979C856.828 268.994 867.506 265.5 879 265.5 909.652 265.5 934.5 290.348 934.5 321L934.5 321.002 934.5 376.5 879.001 376.5 879 376.5 878.999 376.5 823.5 376.5 823.5 376.5 823.5 376.5Z" stroke="#FFFFFF" stroke-width="1.33333" stroke-miterlimit="8" fill="#FFFFFF" fill-rule="evenodd"/><path d="M1003.25 265.5C1010.94 265.5 1018.28 267.053 1024.95 269.862L1030.5 272.863 1030.5 369.137 1024.95 372.139C1018.28 374.947 1010.94 376.5 1003.25 376.5 972.458 376.5 947.5 351.652 947.5 321 947.5 290.348 972.458 265.5 1003.25 265.5Z" stroke="#FFFFFF" stroke-width="1.33333" stroke-miterlimit="8" fill="#FFFFFF" fill-rule="evenodd"/><path d="M1043.5 265.5 1063.35 265.5 1063.35 278.791 1067.97 274.979C1076.83 268.994 1087.51 265.5 1099 265.5 1129.65 265.5 1154.5 290.348 1154.5 321L1154.5 321.002 1154.5 376.5 1099 376.5 1099 376.5 1099 376.5 1043.5 376.5 1043.5 376.5 1043.5 376.5Z" stroke="#FFFFFF" stroke-width="1.33333" stroke-miterlimit="8" fill="#FFFFFF" fill-rule="evenodd"/><path d="M1223.25 265.5C1230.94 265.5 1238.28 267.053 1244.95 269.862L1250.5 272.863 1250.5 369.137 1244.95 372.139C1238.28 374.947 1230.94 376.5 1223.25 376.5 1192.46 376.5 1167.5 351.652 1167.5 321 1167.5 290.348 1192.46 265.5 1223.25 265.5Z" stroke="#FFFFFF" stroke-width="1.33333" stroke-miterlimit="8" fill="#FFFFFF" fill-rule="evenodd"/><path d="M668.832 320.809 668.832 321 668.832 321 668.832 321.191 671.688 321ZM602.5 265.5 668.832 265.5 668.832 265.691 671.688 265.5C694.78 265.5 713.5 277.924 713.5 293.25 713.5 306.66 699.168 317.849 680.115 320.436L671.689 321 680.115 321.564C699.168 324.151 713.5 335.34 713.5 348.75 713.5 364.076 694.78 376.5 671.688 376.5L668.832 376.309 668.832 376.5 602.5 376.5 602.5 321 602.5 321Z" stroke="#FFFFFF" stroke-width="1.33333" stroke-miterlimit="8" fill="#FFFFFF" fill-rule="evenodd"/><path d="M4.50005 265.5 24.1701 265.5 24.1701 321.322 114.5 321.322 114.5 376.5 4.50026 376.5 4.50026 376.5 4.50005 376.5Z" stroke="#FFFFFF" stroke-width="1.33333" stroke-miterlimit="8" fill="#FFFFFF" fill-rule="evenodd"/><path d="M183.575 265.5C191.179 265.5 198.423 267.053 205.012 269.862L210.5 272.863 210.5 369.137 205.012 372.139C198.423 374.947 191.179 376.5 183.575 376.5 153.158 376.5 128.5 351.652 128.5 321 128.5 290.348 153.158 265.5 183.575 265.5Z" stroke="#FFFFFF" stroke-width="1.33333" stroke-miterlimit="8" fill="#FFFFFF" fill-rule="evenodd"/><path d="M224.5 265.5 244.349 265.5 244.349 278.791 248.97 274.979C257.828 268.994 268.506 265.5 280 265.5 310.652 265.5 335.5 290.348 335.5 321L335.5 321.002 335.5 376.5 280.001 376.5 280 376.5 279.999 376.5 224.5 376.5 224.5 376.5 224.5 376.5Z" stroke="#FFFFFF" stroke-width="1.33333" stroke-miterlimit="8" fill="#FFFFFF" fill-rule="evenodd"/><path d="M403.647 398.673C384.088 398.673 368.233 414.513 368.233 434.053 368.233 453.592 384.088 469.432 403.647 469.432 423.205 469.432 439.06 453.592 439.06 434.053 439.06 414.513 423.205 398.673 403.647 398.673ZM404 265.5C434.652 265.5 459.5 290.325 459.5 320.947L459.193 323.991 459.23 323.991 459.23 431.376 459.5 434.053C459.5 464.675 434.652 489.5 404 489.5 373.348 489.5 348.5 464.675 348.5 434.053 348.5 403.43 373.348 378.605 404 378.605 415.494 378.605 426.173 382.096 435.031 388.075L439.381 391.661 439.381 363.339 435.031 366.925C426.173 372.904 415.495 376.395 404 376.395 373.348 376.395 348.5 351.57 348.5 320.947 348.5 290.325 373.348 265.5 404 265.5Z" stroke="#FFFFFF" stroke-width="1.33333" stroke-miterlimit="8" fill="#FFFFFF" fill-rule="evenodd"/><path d="M789.246 254.5C796.943 254.5 804.276 256.053 810.945 258.862L816.5 261.863 816.5 358.137 810.945 361.139C804.276 363.947 796.943 365.5 789.246 365.5 758.458 365.5 733.5 340.652 733.5 310 733.5 279.348 758.458 254.5 789.246 254.5Z" stroke="#000000" stroke-width="1.33333" stroke-miterlimit="8" fill-rule="evenodd"/><path d="M829.5 254.5 849.349 254.5 849.349 267.791 853.97 263.979C862.828 257.994 873.506 254.5 885 254.5 915.652 254.5 940.5 279.348 940.5 310L940.5 310.002 940.5 365.5 885.001 365.5 885 365.5 884.999 365.5 829.5 365.5 829.5 365.5 829.5 365.5Z" stroke="#000000" stroke-width="1.33333" stroke-miterlimit="8" fill-rule="evenodd"/><path d="M1009.25 254.5C1016.94 254.5 1024.28 256.053 1030.95 258.862L1036.5 261.863 1036.5 358.137 1030.95 361.139C1024.28 363.947 1016.94 365.5 1009.25 365.5 978.458 365.5 953.5 340.652 953.5 310 953.5 279.348 978.458 254.5 1009.25 254.5Z" stroke="#000000" stroke-width="1.33333" stroke-miterlimit="8" fill-rule="evenodd"/><path d="M1049.5 254.5 1069.35 254.5 1069.35 267.791 1073.97 263.979C1082.83 257.994 1093.51 254.5 1105 254.5 1135.65 254.5 1160.5 279.348 1160.5 310L1160.5 310.002 1160.5 365.5 1105 365.5 1105 365.5 1105 365.5 1049.5 365.5 1049.5 365.5 1049.5 365.5Z" stroke="#000000" stroke-width="1.33333" stroke-miterlimit="8" fill-rule="evenodd"/><path d="M1229.57 254.5C1237.18 254.5 1244.42 256.053 1251.01 258.862L1256.5 261.863 1256.5 358.137 1251.01 361.139C1244.42 363.947 1237.18 365.5 1229.57 365.5 1199.16 365.5 1174.5 340.652 1174.5 310 1174.5 279.348 1199.16 254.5 1229.57 254.5Z" stroke="#000000" stroke-width="1.33333" stroke-miterlimit="8" fill-rule="evenodd"/><path d="M675.43 309.809 675.43 310 675.43 310 675.43 310.191 678.311 310ZM608.5 254.5 675.43 254.5 675.43 254.691 678.312 254.5C701.612 254.5 720.5 266.924 720.5 282.25 720.5 295.66 706.039 306.849 686.814 309.436L678.312 310 686.814 310.564C706.039 313.151 720.5 324.34 720.5 337.75 720.5 353.076 701.612 365.5 678.312 365.5L675.43 365.309 675.43 365.5 608.5 365.5 608.5 310 608.5 310Z" stroke="#000000" stroke-width="1.33333" stroke-miterlimit="8" fill-rule="evenodd"/><path d="M10.5001 254.5 30.3489 254.5 30.3489 310.322 121.5 310.322 121.5 365.5 10.5003 365.5 10.5003 365.5 10.5001 365.5Z" stroke="#000000" stroke-width="1.33333" stroke-miterlimit="8" fill-rule="evenodd"/><path d="M190.246 254.5C197.943 254.5 205.276 256.053 211.945 258.862L217.5 261.863 217.5 358.137 211.945 361.139C205.276 363.947 197.943 365.5 190.246 365.5 159.458 365.5 134.5 340.652 134.5 310 134.5 279.348 159.458 254.5 190.246 254.5Z" stroke="#000000" stroke-width="1.33333" stroke-miterlimit="8" fill-rule="evenodd"/><path d="M230.5 254.5 250.349 254.5 250.349 267.791 254.97 263.979C263.828 257.994 274.506 254.5 286 254.5 316.652 254.5 341.5 279.348 341.5 310L341.5 310.002 341.5 365.5 286.001 365.5 286 365.5 285.999 365.5 230.5 365.5 230.5 365.5 230.5 365.5Z" stroke="#000000" stroke-width="1.33333" stroke-miterlimit="8" fill-rule="evenodd"/><path d="M409.647 387.673C390.088 387.673 374.233 403.513 374.233 423.053 374.233 442.592 390.088 458.432 409.647 458.432 429.205 458.432 445.06 442.592 445.06 423.053 445.06 403.513 429.205 387.673 409.647 387.673ZM410 254.5C440.652 254.5 465.5 279.325 465.5 309.947L465.193 312.991 465.23 312.991 465.23 420.376 465.5 423.053C465.5 453.675 440.652 478.5 410 478.5 379.348 478.5 354.5 453.675 354.5 423.053 354.5 392.43 379.348 367.605 410 367.605 421.494 367.605 432.173 371.096 441.031 377.075L445.381 380.661 445.381 352.339 441.031 355.925C432.173 361.904 421.495 365.395 410 365.395 379.348 365.395 354.5 340.57 354.5 309.947 354.5 279.325 379.348 254.5 410 254.5Z" stroke="#000000" stroke-width="1.33333" stroke-miterlimit="8" fill-rule="evenodd"/><path d="M643.837 356.125 643.016 356.806C633.515 363.343 601.804 370.931 585.144 367.027 568.484 363.124 550.941 346.068 543.056 333.385 535.172 320.703 537.563 300.913 537.837 290.933 538.111 280.952 541.507 275.523 544.701 273.504 549.783 274.81 554.021 277.628 556.393 281.591 558.765 285.555 550.927 282.61 558.932 297.284 566.937 311.958 595.968 348.531 631.368 351.025L643.837 356.125Z" stroke="#FECD07" stroke-width="3" stroke-miterlimit="8" fill="#FECD07" fill-rule="evenodd"/><path d="M95.8782 0 96.5163 0.914286C102.488 11.3635 107.493 44.9297 101.849 61.8386 96.204 78.7475 76.6832 95.3623 62.6482 102.368 48.6132 109.373 28.0806 105.074 17.6393 103.872 7.1979 102.67 1.81953 98.6504 0 95.1543 1.8421 90.0071 5.19234 85.8734 9.56966 83.7796 13.947 81.6858 10.1289 89.5387 26.2639 82.5917 42.399 75.6446 83.4581 48.9183 89.3687 12.4547L95.8782 0Z" stroke="#FECD07" stroke-width="3" stroke-miterlimit="8" fill="#FECD07" fill-rule="evenodd" transform="matrix(-0.198454 0.98011 0.98011 0.198454 449.42 253.214)"/><path d="M0 114.346 13.3678 115.822 14.9898 101.132 31.2218 100.247 31.397 100.373C34.2741 101.965 38.2291 103.271 43.4498 103.872 53.8911 105.074 74.4237 109.373 88.4587 102.368 102.494 95.3623 122.014 78.7475 127.659 61.8386 133.304 44.9298 128.299 11.3635 122.327 0.914226L121.689 0 115.179 12.4547C109.269 48.9183 68.2094 75.6446 52.0744 82.5916 35.9394 89.5388 39.7575 81.6858 35.3802 83.7796 34.2858 84.3031 33.2556 84.954 32.2972 85.7164L29.7545 88.214 16.3355 88.9463 18.0124 73.7609 4.64472 72.2848Z" stroke="#FECD07" stroke-width="3" stroke-miterlimit="8" fill="#FECD07" fill-rule="evenodd" transform="matrix(0.161514 0.98687 0.98687 -0.161514 447.712 264.37)"/></g></svg>