<svg width="1255" height="246" xmlns="http://www.w3.org/2000/svg" xmlns:xlink="http://www.w3.org/1999/xlink" overflow="hidden"><defs><clipPath id="clip0"><rect x="4" y="905" width="1255" height="246"/></clipPath></defs><g clip-path="url(#clip0)" transform="translate(-4 -905)"><path d="M784.246 926.5C791.943 926.5 799.276 928.053 805.945 930.862L811.5 933.863 811.5 1030.14 805.945 1033.14C799.276 1035.95 791.943 1037.5 784.246 1037.5 753.458 1037.5 728.5 1012.65 728.5 982 728.5 951.348 753.458 926.5 784.246 926.5Z" stroke="#FECD07" stroke-width="1.33333" stroke-miterlimit="8" fill="#FECD07" fill-rule="evenodd"/><path d="M824.5 926.5 844.349 926.5 844.349 939.791 848.97 935.979C857.828 929.994 868.506 926.5 880 926.5 910.652 926.5 935.5 951.348 935.5 982L935.5 982.002 935.5 1037.5 880.001 1037.5 880 1037.5 879.999 1037.5 824.5 1037.5 824.5 1037.5 824.5 1037.5Z" stroke="#FECD07" stroke-width="1.33333" stroke-miterlimit="8" fill="#FECD07" fill-rule="evenodd"/><path d="M1004.25 926.5C1011.94 926.5 1019.28 928.053 1025.95 930.862L1031.5 933.863 1031.5 1030.14 1025.95 1033.14C1019.28 1035.95 1011.94 1037.5 1004.25 1037.5 973.458 1037.5 948.5 1012.65 948.5 982 948.5 951.348 973.458 926.5 1004.25 926.5Z" stroke="#FECD07" stroke-width="1.33333" stroke-miterlimit="8" fill="#FECD07" fill-rule="evenodd"/><path d="M1044.5 926.5 1064.35 926.5 1064.35 939.791 1068.97 935.979C1077.83 929.994 1088.51 926.5 1100 926.5 1130.65 926.5 1155.5 951.348 1155.5 982L1155.5 982.002 1155.5 1037.5 1100 1037.5 1100 1037.5 1100 1037.5 1044.5 1037.5 1044.5 1037.5 1044.5 1037.5Z" stroke="#FECD07" stroke-width="1.33333" stroke-miterlimit="8" fill="#FECD07" fill-rule="evenodd"/><path d="M1224.57 926.5C1232.18 926.5 1239.42 928.053 1246.01 930.862L1251.5 933.863 1251.5 1030.14 1246.01 1033.14C1239.42 1035.95 1232.18 1037.5 1224.57 1037.5 1194.16 1037.5 1169.5 1012.65 1169.5 982 1169.5 951.348 1194.16 926.5 1224.57 926.5Z" stroke="#FECD07" stroke-width="1.33333" stroke-miterlimit="8" fill="#FECD07" fill-rule="evenodd"/><path d="M670.43 981.809 670.43 982 670.43 982 670.43 982.191 673.311 982ZM603.5 926.5 670.43 926.5 670.43 926.691 673.312 926.5C696.612 926.5 715.5 938.924 715.5 954.25 715.5 967.66 701.039 978.849 681.814 981.436L673.312 982 681.814 982.564C701.039 985.151 715.5 996.34 715.5 1009.75 715.5 1025.08 696.612 1037.5 673.312 1037.5L670.43 1037.31 670.43 1037.5 603.5 1037.5 603.5 982 603.5 982Z" stroke="#FECD07" stroke-width="1.33333" stroke-miterlimit="8" fill="#FECD07" fill-rule="evenodd"/><path d="M5.50005 926.5 25.3489 926.5 25.3489 982.322 116.5 982.322 116.5 1037.5 5.50026 1037.5 5.50026 1037.5 5.50005 1037.5Z" stroke="#FECD07" stroke-width="1.33333" stroke-miterlimit="8" fill="#FECD07" fill-rule="evenodd"/><path d="M185.246 926.5C192.943 926.5 200.276 928.053 206.945 930.862L212.5 933.863 212.5 1030.14 206.945 1033.14C200.276 1035.95 192.943 1037.5 185.246 1037.5 154.458 1037.5 129.5 1012.65 129.5 982 129.5 951.348 154.458 926.5 185.246 926.5Z" stroke="#FECD07" stroke-width="1.33333" stroke-miterlimit="8" fill="#FECD07" fill-rule="evenodd"/><path d="M225.5 926.5 245.349 926.5 245.349 939.791 249.97 935.979C258.828 929.994 269.506 926.5 281 926.5 311.652 926.5 336.5 951.348 336.5 982L336.5 982.002 336.5 1037.5 281.001 1037.5 281 1037.5 280.999 1037.5 225.5 1037.5 225.5 1037.5 225.5 1037.5Z" stroke="#FECD07" stroke-width="1.33333" stroke-miterlimit="8" fill="#FECD07" fill-rule="evenodd"/><path d="M404.647 1059.08C385.088 1059.08 369.233 1074.85 369.233 1094.3 369.233 1113.75 385.088 1129.52 404.647 1129.52 424.205 1129.52 440.06 1113.75 440.06 1094.3 440.06 1074.85 424.205 1059.08 404.647 1059.08ZM405 926.5C435.652 926.5 460.5 951.214 460.5 981.7L460.193 984.73 460.23 984.73 460.23 1091.64 460.5 1094.3C460.5 1124.79 435.652 1149.5 405 1149.5 374.348 1149.5 349.5 1124.79 349.5 1094.3 349.5 1063.81 374.348 1039.1 405 1039.1 416.494 1039.1 427.173 1042.58 436.031 1048.53L440.381 1052.1 440.381 1023.9 436.031 1027.47C427.173 1033.42 416.495 1036.9 405 1036.9 374.348 1036.9 349.5 1012.19 349.5 981.7 349.5 951.214 374.348 926.5 405 926.5Z" stroke="#FECD07" stroke-width="1.33333" stroke-miterlimit="8" fill="#FECD07" fill-rule="evenodd"/><path d="M790.246 916.5C797.943 916.5 805.276 918.053 811.945 920.862L817.5 923.863 817.5 1020.14 811.945 1023.14C805.276 1025.95 797.943 1027.5 790.246 1027.5 759.458 1027.5 734.5 1002.65 734.5 972 734.5 941.348 759.458 916.5 790.246 916.5Z" stroke="#FFFFFF" stroke-width="1.33333" stroke-miterlimit="8" fill="#FFFFFF" fill-rule="evenodd"/><path d="M830.5 916.5 850.349 916.5 850.349 929.791 854.97 925.979C863.828 919.994 874.506 916.5 886 916.5 916.652 916.5 941.5 941.348 941.5 972L941.5 972.002 941.5 1027.5 886.001 1027.5 886 1027.5 885.999 1027.5 830.5 1027.5 830.5 1027.5 830.5 1027.5Z" stroke="#FFFFFF" stroke-width="1.33333" stroke-miterlimit="8" fill="#FFFFFF" fill-rule="evenodd"/><path d="M1010.57 916.5C1018.18 916.5 1025.42 918.053 1032.01 920.862L1037.5 923.863 1037.5 1020.14 1032.01 1023.14C1025.42 1025.95 1018.18 1027.5 1010.57 1027.5 980.158 1027.5 955.5 1002.65 955.5 972 955.5 941.348 980.158 916.5 1010.57 916.5Z" stroke="#FFFFFF" stroke-width="1.33333" stroke-miterlimit="8" fill="#FFFFFF" fill-rule="evenodd"/><path d="M1051.5 916.5 1071.17 916.5 1071.17 929.791 1075.75 925.979C1084.53 919.994 1095.11 916.5 1106.5 916.5 1136.88 916.5 1161.5 941.348 1161.5 972L1161.5 972.002 1161.5 1027.5 1106.5 1027.5 1106.5 1027.5 1106.5 1027.5 1051.5 1027.5 1051.5 1027.5 1051.5 1027.5Z" stroke="#FFFFFF" stroke-width="1.33333" stroke-miterlimit="8" fill="#FFFFFF" fill-rule="evenodd"/><path d="M1230.57 916.5C1238.18 916.5 1245.42 918.053 1252.01 920.862L1257.5 923.863 1257.5 1020.14 1252.01 1023.14C1245.42 1025.95 1238.18 1027.5 1230.57 1027.5 1200.16 1027.5 1175.5 1002.65 1175.5 972 1175.5 941.348 1200.16 916.5 1230.57 916.5Z" stroke="#FFFFFF" stroke-width="1.33333" stroke-miterlimit="8" fill="#FFFFFF" fill-rule="evenodd"/><path d="M676.832 971.809 676.832 972 676.832 972 676.832 972.191 679.688 972ZM610.5 916.5 676.832 916.5 676.832 916.691 679.688 916.5C702.78 916.5 721.5 928.924 721.5 944.25 721.5 957.66 707.168 968.849 688.115 971.436L679.689 972 688.115 972.564C707.168 975.151 721.5 986.34 721.5 999.75 721.5 1015.08 702.78 1027.5 679.688 1027.5L676.832 1027.31 676.832 1027.5 610.5 1027.5 610.5 972 610.5 972Z" stroke="#FFFFFF" stroke-width="1.33333" stroke-miterlimit="8" fill="#FFFFFF" fill-rule="evenodd"/><path d="M11.5001 916.5 31.3489 916.5 31.3489 972.322 122.5 972.322 122.5 1027.5 11.5003 1027.5 11.5003 1027.5 11.5001 1027.5Z" stroke="#FFFFFF" stroke-width="1.33333" stroke-miterlimit="8" fill="#FFFFFF" fill-rule="evenodd"/><path d="M191.246 916.5C198.943 916.5 206.276 918.053 212.945 920.862L218.5 923.863 218.5 1020.14 212.945 1023.14C206.276 1025.95 198.943 1027.5 191.246 1027.5 160.458 1027.5 135.5 1002.65 135.5 972 135.5 941.348 160.458 916.5 191.246 916.5Z" stroke="#FFFFFF" stroke-width="1.33333" stroke-miterlimit="8" fill="#FFFFFF" fill-rule="evenodd"/><path d="M231.5 916.5 251.349 916.5 251.349 929.791 255.97 925.979C264.828 919.994 275.506 916.5 287 916.5 317.652 916.5 342.5 941.348 342.5 972L342.5 972.002 342.5 1027.5 287.001 1027.5 287 1027.5 286.999 1027.5 231.5 1027.5 231.5 1027.5 231.5 1027.5Z" stroke="#FFFFFF" stroke-width="1.33333" stroke-miterlimit="8" fill="#FFFFFF" fill-rule="evenodd"/><path d="M411.15 1049.67C391.768 1049.67 376.056 1065.51 376.056 1085.05 376.056 1104.59 391.768 1120.43 411.15 1120.43 430.532 1120.43 446.244 1104.59 446.244 1085.05 446.244 1065.51 430.532 1049.67 411.15 1049.67ZM411.5 916.5C441.876 916.5 466.5 941.325 466.5 971.947L466.196 974.991 466.232 974.991 466.232 1082.38 466.5 1085.05C466.5 1115.68 441.876 1140.5 411.5 1140.5 381.124 1140.5 356.5 1115.68 356.5 1085.05 356.5 1054.43 381.124 1029.61 411.5 1029.61 422.891 1029.61 433.473 1033.1 442.251 1039.07L446.562 1042.66 446.562 1014.34 442.251 1017.93C433.473 1023.9 422.891 1027.39 411.5 1027.39 381.124 1027.39 356.5 1002.57 356.5 971.947 356.5 941.325 381.124 916.5 411.5 916.5Z" stroke="#FFFFFF" stroke-width="1.33333" stroke-miterlimit="8" fill="#FFFFFF" fill-rule="evenodd"/><path d="M645.164 1018 644.343 1018.68C634.842 1025.22 603.131 1032.81 586.471 1028.9 569.811 1025 552.268 1007.94 544.383 995.261 536.499 982.579 538.89 962.789 539.164 952.809 539.438 942.829 542.834 937.399 546.028 935.381 551.11 936.686 555.348 939.504 557.72 943.468 560.092 947.431 552.254 944.486 560.259 959.16 568.264 973.834 597.295 1010.41 632.695 1012.9L645.164 1018Z" stroke="#FECD07" stroke-width="3" stroke-miterlimit="8" fill="#FECD07" fill-rule="evenodd"/><path d="M95.8782 0 96.5163 0.914286C102.488 11.3635 107.493 44.9297 101.849 61.8386 96.204 78.7475 76.6832 95.3623 62.6482 102.368 48.6132 109.373 28.0806 105.074 17.6393 103.872 7.1979 102.67 1.81953 98.6504 0 95.1543 1.8421 90.0071 5.19234 85.8734 9.56966 83.7796 13.947 81.6858 10.1289 89.5387 26.2639 82.5917 42.399 75.6446 83.4581 48.9183 89.3687 12.4547L95.8782 0Z" stroke="#FECD07" stroke-width="3" stroke-miterlimit="8" fill="#FECD07" fill-rule="evenodd" transform="matrix(-0.198454 0.98011 0.98011 0.198454 450.747 915.09)"/><path d="M0 114.346 13.3678 115.822 14.9898 101.132 31.2218 100.247 31.397 100.373C34.2741 101.965 38.2291 103.271 43.4498 103.872 53.8911 105.074 74.4237 109.373 88.4587 102.368 102.494 95.3623 122.014 78.7475 127.659 61.8386 133.304 44.9298 128.299 11.3635 122.327 0.914226L121.689 0 115.179 12.4547C109.269 48.9183 68.2094 75.6446 52.0744 82.5916 35.9394 89.5388 39.7575 81.6858 35.3802 83.7796 34.2858 84.3031 33.2556 84.954 32.2972 85.7164L29.7545 88.214 16.3355 88.9463 18.0124 73.7609 4.64472 72.2848Z" stroke="#FECD07" stroke-width="3" stroke-miterlimit="8" fill="#FECD07" fill-rule="evenodd" transform="matrix(0.161514 0.98687 0.98687 -0.161514 449.039 926.246)"/></g></svg>