<svg width="307" height="158" xmlns="http://www.w3.org/2000/svg" xmlns:xlink="http://www.w3.org/1999/xlink" overflow="hidden"><defs><clipPath id="clip0"><rect x="487" y="146" width="307" height="158"/></clipPath></defs><g clip-path="url(#clip0)" transform="translate(-487 -146)"><path d="M488.5 155.483 501.375 155.483 501.375 192.195 560.5 192.195 560.5 228.483 488.5 228.483 488.5 228.483 488.5 228.483Z" stroke="#FFFFFF" stroke-width="1.33333" stroke-miterlimit="8" fill="#FFFFFF" fill-rule="evenodd"/><path d="M606.769 155.483C611.776 155.483 616.547 156.505 620.886 158.352L624.5 160.326 624.5 223.641 620.886 225.615C616.547 227.462 611.776 228.483 606.769 228.483 586.738 228.483 570.5 212.142 570.5 191.983 570.5 171.825 586.738 155.483 606.769 155.483Z" stroke="#FFFFFF" stroke-width="1.33333" stroke-miterlimit="8" fill="#FFFFFF" fill-rule="evenodd"/><path d="M633.5 155.483 646.554 155.483 646.554 164.224 649.593 161.717C655.418 157.781 662.441 155.483 670 155.483 690.158 155.483 706.5 171.825 706.5 191.983L706.5 191.985 706.5 228.483 670.001 228.483 670 228.483 669.999 228.483 633.5 228.483 633.5 228.483 633.5 228.483Z" stroke="#FFFFFF" stroke-width="1.33333" stroke-miterlimit="8" fill="#FFFFFF" fill-rule="evenodd"/><path d="M751.768 243.473C738.905 243.473 728.477 253.938 728.477 266.849 728.477 279.758 738.905 290.224 751.768 290.224 764.63 290.224 775.057 279.758 775.057 266.849 775.057 253.938 764.63 243.473 751.768 243.473ZM752 155.483C772.158 155.483 788.5 171.885 788.5 192.118L788.298 194.129 788.322 194.129 788.322 265.08 788.5 266.849C788.5 287.081 772.158 303.483 752 303.483 731.841 303.483 715.5 287.081 715.5 266.849 715.5 246.615 731.841 230.213 752 230.213 759.559 230.213 766.582 232.52 772.408 236.47L775.269 238.84 775.269 220.127 772.408 222.496C766.582 226.447 759.56 228.753 752 228.753 731.841 228.753 715.5 212.351 715.5 192.118 715.5 171.885 731.841 155.483 752 155.483Z" stroke="#FFFFFF" stroke-width="1.33333" stroke-miterlimit="8" fill="#FFFFFF" fill-rule="evenodd"/><path d="M492.5 148.483 505.554 148.483 505.554 185.195 565.5 185.195 565.5 221.483 492.5 221.483 492.5 221.483 492.5 221.483Z" stroke="#000000" stroke-width="1.33333" stroke-miterlimit="8" fill-rule="evenodd"/><path d="M610.768 148.483C615.776 148.483 620.547 149.505 624.886 151.352L628.5 153.326 628.5 216.641 624.886 218.615C620.547 220.462 615.776 221.483 610.768 221.483 590.738 221.483 574.5 205.142 574.5 184.983 574.5 164.825 590.738 148.483 610.768 148.483Z" stroke="#000000" stroke-width="1.33333" stroke-miterlimit="8" fill-rule="evenodd"/><path d="M637.5 148.483 650.554 148.483 650.554 157.224 653.593 154.717C659.418 150.781 666.441 148.483 674 148.483 694.158 148.483 710.5 164.825 710.5 184.983L710.5 184.985 710.5 221.483 674.001 221.483 674 221.483 673.999 221.483 637.5 221.483 637.5 221.483 637.5 221.483Z" stroke="#000000" stroke-width="1.33333" stroke-miterlimit="8" fill-rule="evenodd"/><path d="M755.768 236.473C742.905 236.473 732.477 246.938 732.477 259.849 732.477 272.758 742.905 283.224 755.768 283.224 768.63 283.224 779.057 272.758 779.057 259.849 779.057 246.938 768.63 236.473 755.768 236.473ZM756 148.483C776.158 148.483 792.5 164.885 792.5 185.118L792.298 187.129 792.322 187.129 792.322 258.08 792.5 259.849C792.5 280.081 776.158 296.483 756 296.483 735.841 296.483 719.5 280.081 719.5 259.849 719.5 239.615 735.841 223.213 756 223.213 763.559 223.213 770.582 225.52 776.408 229.47L779.269 231.84 779.269 213.127 776.408 215.496C770.582 219.447 763.56 221.753 756 221.753 735.841 221.753 719.5 205.351 719.5 185.118 719.5 164.885 735.841 148.483 756 148.483Z" stroke="#000000" stroke-width="1.33333" stroke-miterlimit="8" fill-rule="evenodd"/></g></svg>