<svg width="1257" height="246" xmlns="http://www.w3.org/2000/svg" xmlns:xlink="http://www.w3.org/1999/xlink" overflow="hidden"><defs><clipPath id="clip0"><rect x="2" y="545" width="1257" height="246"/></clipPath></defs><g clip-path="url(#clip0)" transform="translate(-2 -545)"><path d="M782.575 566.5C790.179 566.5 797.423 568.053 804.012 570.862L809.5 573.863 809.5 670.137 804.012 673.139C797.423 675.947 790.179 677.5 782.575 677.5 752.158 677.5 727.5 652.652 727.5 622 727.5 591.348 752.158 566.5 782.575 566.5Z" stroke="#000000" stroke-width="1.33333" stroke-miterlimit="8" fill-rule="evenodd"/><path d="M823.5 566.5 843.349 566.5 843.349 579.791 847.97 575.979C856.828 569.994 867.506 566.5 879 566.5 909.652 566.5 934.5 591.348 934.5 622L934.5 622.002 934.5 677.5 879.001 677.5 879 677.5 878.999 677.5 823.5 677.5 823.5 677.5 823.5 677.5Z" stroke="#000000" stroke-width="1.33333" stroke-miterlimit="8" fill-rule="evenodd"/><path d="M1003.25 566.5C1010.94 566.5 1018.28 568.053 1024.95 570.862L1030.5 573.863 1030.5 670.137 1024.95 673.139C1018.28 675.947 1010.94 677.5 1003.25 677.5 972.458 677.5 947.5 652.652 947.5 622 947.5 591.348 972.458 566.5 1003.25 566.5Z" stroke="#000000" stroke-width="1.33333" stroke-miterlimit="8" fill-rule="evenodd"/><path d="M1043.5 566.5 1063.35 566.5 1063.35 579.791 1067.97 575.979C1076.83 569.994 1087.51 566.5 1099 566.5 1129.65 566.5 1154.5 591.348 1154.5 622L1154.5 622.002 1154.5 677.5 1099 677.5 1099 677.5 1099 677.5 1043.5 677.5 1043.5 677.5 1043.5 677.5Z" stroke="#000000" stroke-width="1.33333" stroke-miterlimit="8" fill-rule="evenodd"/><path d="M1223.25 566.5C1230.94 566.5 1238.28 568.053 1244.95 570.862L1250.5 573.863 1250.5 670.137 1244.95 673.139C1238.28 675.947 1230.94 677.5 1223.25 677.5 1192.46 677.5 1167.5 652.652 1167.5 622 1167.5 591.348 1192.46 566.5 1223.25 566.5Z" stroke="#000000" stroke-width="1.33333" stroke-miterlimit="8" fill-rule="evenodd"/><path d="M668.832 621.809 668.832 622 668.832 622 668.832 622.191 671.688 622ZM602.5 566.5 668.832 566.5 668.832 566.691 671.688 566.5C694.78 566.5 713.5 578.924 713.5 594.25 713.5 607.66 699.168 618.849 680.115 621.436L671.689 622 680.115 622.564C699.168 625.151 713.5 636.34 713.5 649.75 713.5 665.076 694.78 677.5 671.688 677.5L668.832 677.309 668.832 677.5 602.5 677.5 602.5 622 602.5 622Z" stroke="#000000" stroke-width="1.33333" stroke-miterlimit="8" fill-rule="evenodd"/><path d="M4.50005 566.5 24.1701 566.5 24.1701 622.322 114.5 622.322 114.5 677.5 4.50026 677.5 4.50026 677.5 4.50005 677.5Z" stroke="#000000" stroke-width="1.33333" stroke-miterlimit="8" fill-rule="evenodd"/><path d="M183.575 566.5C191.179 566.5 198.423 568.053 205.012 570.862L210.5 573.863 210.5 670.137 205.012 673.139C198.423 675.947 191.179 677.5 183.575 677.5 153.158 677.5 128.5 652.652 128.5 622 128.5 591.348 153.158 566.5 183.575 566.5Z" stroke="#000000" stroke-width="1.33333" stroke-miterlimit="8" fill-rule="evenodd"/><path d="M224.5 566.5 244.349 566.5 244.349 579.791 248.97 575.979C257.828 569.994 268.506 566.5 280 566.5 310.652 566.5 335.5 591.348 335.5 622L335.5 622.002 335.5 677.5 280.001 677.5 280 677.5 279.999 677.5 224.5 677.5 224.5 677.5 224.5 677.5Z" stroke="#000000" stroke-width="1.33333" stroke-miterlimit="8" fill-rule="evenodd"/><path d="M403.647 699.673C384.088 699.673 368.233 715.513 368.233 735.053 368.233 754.592 384.088 770.432 403.647 770.432 423.205 770.432 439.06 754.592 439.06 735.053 439.06 715.513 423.205 699.673 403.647 699.673ZM404 566.5C434.652 566.5 459.5 591.325 459.5 621.947L459.193 624.991 459.23 624.991 459.23 732.376 459.5 735.053C459.5 765.675 434.652 790.5 404 790.5 373.348 790.5 348.5 765.675 348.5 735.053 348.5 704.43 373.348 679.605 404 679.605 415.494 679.605 426.173 683.096 435.031 689.075L439.381 692.661 439.381 664.339 435.031 667.925C426.173 673.904 415.495 677.395 404 677.395 373.348 677.395 348.5 652.57 348.5 621.947 348.5 591.325 373.348 566.5 404 566.5Z" stroke="#000000" stroke-width="1.33333" stroke-miterlimit="8" fill-rule="evenodd"/><path d="M790.246 556.5C797.943 556.5 805.276 558.053 811.945 560.862L817.5 563.863 817.5 660.137 811.945 663.139C805.276 665.947 797.943 667.5 790.246 667.5 759.458 667.5 734.5 642.652 734.5 612 734.5 581.348 759.458 556.5 790.246 556.5Z" stroke="#FFFFFF" stroke-width="1.33333" stroke-miterlimit="8" fill="#FFFFFF" fill-rule="evenodd"/><path d="M830.5 556.5 850.349 556.5 850.349 569.791 854.97 565.979C863.828 559.994 874.506 556.5 886 556.5 916.652 556.5 941.5 581.348 941.5 612L941.5 612.002 941.5 667.5 886.001 667.5 886 667.5 885.999 667.5 830.5 667.5 830.5 667.5 830.5 667.5Z" stroke="#FFFFFF" stroke-width="1.33333" stroke-miterlimit="8" fill="#FFFFFF" fill-rule="evenodd"/><path d="M1010.57 556.5C1018.18 556.5 1025.42 558.053 1032.01 560.862L1037.5 563.863 1037.5 660.137 1032.01 663.139C1025.42 665.947 1018.18 667.5 1010.57 667.5 980.158 667.5 955.5 642.652 955.5 612 955.5 581.348 980.158 556.5 1010.57 556.5Z" stroke="#FFFFFF" stroke-width="1.33333" stroke-miterlimit="8" fill="#FFFFFF" fill-rule="evenodd"/><path d="M1051.5 556.5 1071.17 556.5 1071.17 569.791 1075.75 565.979C1084.53 559.994 1095.11 556.5 1106.5 556.5 1136.88 556.5 1161.5 581.348 1161.5 612L1161.5 612.002 1161.5 667.5 1106.5 667.5 1106.5 667.5 1106.5 667.5 1051.5 667.5 1051.5 667.5 1051.5 667.5Z" stroke="#FFFFFF" stroke-width="1.33333" stroke-miterlimit="8" fill="#FFFFFF" fill-rule="evenodd"/><path d="M1230.57 556.5C1238.18 556.5 1245.42 558.053 1252.01 560.862L1257.5 563.863 1257.5 660.137 1252.01 663.139C1245.42 665.947 1238.18 667.5 1230.57 667.5 1200.16 667.5 1175.5 642.652 1175.5 612 1175.5 581.348 1200.16 556.5 1230.57 556.5Z" stroke="#FFFFFF" stroke-width="1.33333" stroke-miterlimit="8" fill="#FFFFFF" fill-rule="evenodd"/><path d="M676.832 611.809 676.832 612 676.832 612 676.832 612.191 679.688 612ZM610.5 556.5 676.832 556.5 676.832 556.691 679.688 556.5C702.78 556.5 721.5 568.924 721.5 584.25 721.5 597.66 707.168 608.849 688.115 611.436L679.689 612 688.115 612.564C707.168 615.151 721.5 626.34 721.5 639.75 721.5 655.076 702.78 667.5 679.688 667.5L676.832 667.309 676.832 667.5 610.5 667.5 610.5 612 610.5 612Z" stroke="#FFFFFF" stroke-width="1.33333" stroke-miterlimit="8" fill="#FFFFFF" fill-rule="evenodd"/><path d="M11.5001 556.5 31.3489 556.5 31.3489 612.322 122.5 612.322 122.5 667.5 11.5003 667.5 11.5003 667.5 11.5001 667.5Z" stroke="#FFFFFF" stroke-width="1.33333" stroke-miterlimit="8" fill="#FFFFFF" fill-rule="evenodd"/><path d="M191.246 556.5C198.943 556.5 206.276 558.053 212.945 560.862L218.5 563.863 218.5 660.137 212.945 663.139C206.276 665.947 198.943 667.5 191.246 667.5 160.458 667.5 135.5 642.652 135.5 612 135.5 581.348 160.458 556.5 191.246 556.5Z" stroke="#FFFFFF" stroke-width="1.33333" stroke-miterlimit="8" fill="#FFFFFF" fill-rule="evenodd"/><path d="M231.5 556.5 251.349 556.5 251.349 569.791 255.97 565.979C264.828 559.994 275.506 556.5 287 556.5 317.652 556.5 342.5 581.348 342.5 612L342.5 612.002 342.5 667.5 287.001 667.5 287 667.5 286.999 667.5 231.5 667.5 231.5 667.5 231.5 667.5Z" stroke="#FFFFFF" stroke-width="1.33333" stroke-miterlimit="8" fill="#FFFFFF" fill-rule="evenodd"/><path d="M411.15 689.673C391.768 689.673 376.056 705.513 376.056 725.053 376.056 744.592 391.768 760.432 411.15 760.432 430.532 760.432 446.244 744.592 446.244 725.053 446.244 705.513 430.532 689.673 411.15 689.673ZM411.5 556.5C441.876 556.5 466.5 581.325 466.5 611.947L466.196 614.991 466.232 614.991 466.232 722.376 466.5 725.053C466.5 755.675 441.876 780.5 411.5 780.5 381.124 780.5 356.5 755.675 356.5 725.053 356.5 694.43 381.124 669.605 411.5 669.605 422.891 669.605 433.473 673.096 442.251 679.075L446.562 682.661 446.562 654.339 442.251 657.925C433.473 663.904 422.891 667.395 411.5 667.395 381.124 667.395 356.5 642.57 356.5 611.947 356.5 581.325 381.124 556.5 411.5 556.5Z" stroke="#FFFFFF" stroke-width="1.33333" stroke-miterlimit="8" fill="#FFFFFF" fill-rule="evenodd"/><path d="M645.164 658.233 644.343 658.914C634.842 665.452 603.131 673.039 586.471 669.135 569.811 665.232 552.268 648.176 544.383 635.494 536.499 622.811 538.89 603.021 539.164 593.041 539.438 583.061 542.834 577.631 546.028 575.613 551.11 576.918 555.348 579.736 557.72 583.7 560.092 587.663 552.254 584.718 560.259 599.392 568.264 614.066 597.295 650.639 632.695 653.133L645.164 658.233Z" stroke="#000000" stroke-width="3" stroke-miterlimit="8" fill-rule="evenodd"/><path d="M95.8782 0 96.5163 0.914286C102.488 11.3635 107.493 44.9297 101.849 61.8386 96.204 78.7475 76.6832 95.3623 62.6482 102.368 48.6132 109.373 28.0806 105.074 17.6393 103.872 7.1979 102.67 1.81953 98.6504 0 95.1543 1.8421 90.0071 5.19234 85.8734 9.56966 83.7796 13.947 81.6858 10.1289 89.5387 26.2639 82.5917 42.399 75.6446 83.4581 48.9183 89.3687 12.4547L95.8782 0Z" stroke="#000000" stroke-width="3" stroke-miterlimit="8" fill-rule="evenodd" transform="matrix(-0.198454 0.98011 0.98011 0.198454 450.747 555.322)"/><path d="M0 114.346 13.3678 115.822 14.9898 101.132 31.2218 100.247 31.397 100.373C34.2741 101.965 38.2291 103.271 43.4498 103.872 53.8911 105.074 74.4237 109.373 88.4587 102.368 102.494 95.3623 122.014 78.7475 127.659 61.8386 133.304 44.9298 128.299 11.3635 122.327 0.914226L121.689 0 115.179 12.4547C109.269 48.9183 68.2094 75.6446 52.0744 82.5916 35.9394 89.5388 39.7575 81.6858 35.3802 83.7796 34.2858 84.3031 33.2556 84.954 32.2972 85.7164L29.7545 88.214 16.3355 88.9463 18.0124 73.7609 4.64472 72.2848Z" stroke="#000000" stroke-width="3" stroke-miterlimit="8" fill-rule="evenodd" transform="matrix(0.161514 0.98687 0.98687 -0.161514 449.039 566.478)"/></g></svg>