<svg width="1255" height="247" xmlns="http://www.w3.org/2000/svg" xmlns:xlink="http://www.w3.org/1999/xlink" overflow="hidden"><defs><clipPath id="clip0"><rect x="4" y="-11" width="1255" height="247"/></clipPath></defs><g clip-path="url(#clip0)" transform="translate(-4 11)"><path d="M784.246 11.5001C791.943 11.5001 799.276 13.0391 805.945 15.8223L811.5 18.7968 811.5 114.203 805.945 117.178C799.276 119.961 791.943 121.5 784.246 121.5 753.458 121.5 728.5 96.8757 728.5 66.5001 728.5 36.1244 753.458 11.5001 784.246 11.5001Z" stroke="#000000" stroke-width="1.33333" stroke-miterlimit="8" fill-rule="evenodd"/><path d="M824.5 11.5001 844.349 11.5001 844.349 24.6713 848.97 20.8932C857.828 14.963 868.506 11.5002 880 11.5002 910.652 11.5002 935.5 36.1244 935.5 66.5001L935.5 66.5022 935.5 121.5 880.001 121.5 880 121.5 879.999 121.5 824.5 121.5 824.5 121.5 824.5 121.5Z" stroke="#000000" stroke-width="1.33333" stroke-miterlimit="8" fill-rule="evenodd"/><path d="M1004.57 11.5001C1012.18 11.5001 1019.42 13.0391 1026.01 15.8223L1031.5 18.7968 1031.5 114.203 1026.01 117.178C1019.42 119.961 1012.18 121.5 1004.57 121.5 974.158 121.5 949.5 96.8757 949.5 66.5001 949.5 36.1244 974.158 11.5001 1004.57 11.5001Z" stroke="#000000" stroke-width="1.33333" stroke-miterlimit="8" fill-rule="evenodd"/><path d="M1045.5 11.5001 1065.17 11.5001 1065.17 24.6713 1069.75 20.8932C1078.53 14.963 1089.11 11.5002 1100.5 11.5002 1130.88 11.5002 1155.5 36.1244 1155.5 66.5001L1155.5 66.5022 1155.5 121.5 1100.5 121.5 1100.5 121.5 1100.5 121.5 1045.5 121.5 1045.5 121.5 1045.5 121.5Z" stroke="#000000" stroke-width="1.33333" stroke-miterlimit="8" fill-rule="evenodd"/><path d="M1224.57 11.5001C1232.18 11.5001 1239.42 13.0391 1246.01 15.8223L1251.5 18.7968 1251.5 114.203 1246.01 117.178C1239.42 119.961 1232.18 121.5 1224.57 121.5 1194.16 121.5 1169.5 96.8757 1169.5 66.5001 1169.5 36.1244 1194.16 11.5001 1224.57 11.5001Z" stroke="#000000" stroke-width="1.33333" stroke-miterlimit="8" fill-rule="evenodd"/><path d="M670.43 66.3108 670.43 66.5 670.43 66.5 670.43 66.6894 673.311 66.5001ZM603.5 11.5001 670.43 11.5001 670.43 11.6895 673.312 11.5001C696.612 11.5001 715.5 23.8122 715.5 39.0001 715.5 52.2895 701.039 63.3772 681.814 65.9414L673.312 66.5001 681.814 67.0587C701.039 69.623 715.5 80.7107 715.5 94 715.5 109.188 696.612 121.5 673.312 121.5L670.43 121.311 670.43 121.5 603.5 121.5 603.5 66.5 603.5 66.5Z" stroke="#000000" stroke-width="1.33333" stroke-miterlimit="8" fill-rule="evenodd"/><path d="M5.50005 11.5001 25.3489 11.5001 25.3489 66.8187 116.5 66.8187 116.5 121.5 5.50026 121.5 5.50026 121.5 5.50005 121.5Z" stroke="#000000" stroke-width="1.33333" stroke-miterlimit="8" fill-rule="evenodd"/><path d="M185.246 11.5001C192.943 11.5001 200.276 13.0391 206.945 15.8223L212.5 18.7968 212.5 114.203 206.945 117.178C200.276 119.961 192.943 121.5 185.246 121.5 154.458 121.5 129.5 96.8757 129.5 66.5001 129.5 36.1244 154.458 11.5001 185.246 11.5001Z" stroke="#000000" stroke-width="1.33333" stroke-miterlimit="8" fill-rule="evenodd"/><path d="M225.5 11.5001 245.349 11.5001 245.349 24.6713 249.97 20.8932C258.828 14.963 269.506 11.5002 281 11.5002 311.652 11.5002 336.5 36.1244 336.5 66.5001L336.5 66.5022 336.5 121.5 281.001 121.5 281 121.5 280.999 121.5 225.5 121.5 225.5 121.5 225.5 121.5Z" stroke="#000000" stroke-width="1.33333" stroke-miterlimit="8" fill-rule="evenodd"/><path d="M404.647 144.078C385.088 144.078 369.233 159.848 369.233 179.3 369.233 198.753 385.088 214.522 404.647 214.522 424.205 214.522 440.06 198.753 440.06 179.3 440.06 159.848 424.205 144.078 404.647 144.078ZM405 11.5001C435.652 11.5001 460.5 36.2138 460.5 66.6999L460.193 69.7299 460.23 69.7299 460.23 176.636 460.5 179.3C460.5 209.786 435.652 234.5 405 234.5 374.348 234.5 349.5 209.786 349.5 179.3 349.5 148.814 374.348 124.1 405 124.1 416.494 124.1 427.173 127.576 436.031 133.528L440.381 137.098 440.381 108.902 436.031 112.472C427.173 118.424 416.495 121.9 405 121.9 374.348 121.9 349.5 97.1859 349.5 66.6999 349.5 36.2138 374.348 11.5001 405 11.5001Z" stroke="#000000" stroke-width="1.33333" stroke-miterlimit="8" fill-rule="evenodd"/><path d="M790.246 0.500053C797.943 0.500053 805.276 2.0531 811.945 4.86156L817.5 7.86317 817.5 104.137 811.945 107.139C805.276 109.947 797.943 111.5 790.246 111.5 759.458 111.5 734.5 86.6519 734.5 56.0001 734.5 25.3482 759.458 0.500053 790.246 0.500053Z" stroke="#FECD07" stroke-width="1.33333" stroke-miterlimit="8" fill="#FECD07" fill-rule="evenodd"/><path d="M830.5 0.500053 850.349 0.500053 850.349 13.7911 854.97 9.97864C863.828 3.99445 874.506 0.500158 886 0.500158 916.652 0.500158 941.5 25.3483 941.5 56.0001L941.5 56.0022 941.5 111.5 886.001 111.5 886 111.5 885.999 111.5 830.5 111.5 830.5 111.5 830.5 111.5Z" stroke="#FECD07" stroke-width="1.33333" stroke-miterlimit="8" fill="#FECD07" fill-rule="evenodd"/><path d="M1010.57 0.500053C1018.18 0.500053 1025.42 2.0531 1032.01 4.86156L1037.5 7.86317 1037.5 104.137 1032.01 107.139C1025.42 109.947 1018.18 111.5 1010.57 111.5 980.158 111.5 955.5 86.6519 955.5 56.0001 955.5 25.3482 980.158 0.500053 1010.57 0.500053Z" stroke="#FECD07" stroke-width="1.33333" stroke-miterlimit="8" fill="#FECD07" fill-rule="evenodd"/><path d="M1051.5 0.500053 1071.17 0.500053 1071.17 13.7911 1075.75 9.97864C1084.53 3.99445 1095.11 0.500158 1106.5 0.500158 1136.88 0.500158 1161.5 25.3483 1161.5 56.0001L1161.5 56.0022 1161.5 111.5 1106.5 111.5 1106.5 111.5 1106.5 111.5 1051.5 111.5 1051.5 111.5 1051.5 111.5Z" stroke="#FECD07" stroke-width="1.33333" stroke-miterlimit="8" fill="#FECD07" fill-rule="evenodd"/><path d="M1230.57 0.500053C1238.18 0.500053 1245.42 2.0531 1252.01 4.86156L1257.5 7.86317 1257.5 104.137 1252.01 107.139C1245.42 109.947 1238.18 111.5 1230.57 111.5 1200.16 111.5 1175.5 86.6519 1175.5 56.0001 1175.5 25.3482 1200.16 0.500053 1230.57 0.500053Z" stroke="#FECD07" stroke-width="1.33333" stroke-miterlimit="8" fill="#FECD07" fill-rule="evenodd"/><path d="M676.832 55.8091 676.832 56 676.832 56 676.832 56.1912 679.688 56.0001ZM610.5 0.500053 676.832 0.500053 676.832 0.691211 679.688 0.500053C702.78 0.500053 721.5 12.9242 721.5 28.2501 721.5 41.6603 707.168 52.8488 688.115 55.4363L679.689 56.0001 688.115 56.5638C707.168 59.1514 721.5 70.3399 721.5 83.75 721.5 99.0759 702.78 111.5 679.688 111.5L676.832 111.309 676.832 111.5 610.5 111.5 610.5 56 610.5 56Z" stroke="#FECD07" stroke-width="1.33333" stroke-miterlimit="8" fill="#FECD07" fill-rule="evenodd"/><path d="M11.5001 0.500053 31.3489 0.500053 31.3489 56.3216 122.5 56.3216 122.5 111.5 11.5003 111.5 11.5003 111.5 11.5001 111.5Z" stroke="#FECD07" stroke-width="1.33333" stroke-miterlimit="8" fill="#FECD07" fill-rule="evenodd"/><path d="M191.246 0.500053C198.943 0.500053 206.276 2.0531 212.945 4.86156L218.5 7.86317 218.5 104.137 212.945 107.139C206.276 109.947 198.943 111.5 191.246 111.5 160.458 111.5 135.5 86.6519 135.5 56.0001 135.5 25.3482 160.458 0.500053 191.246 0.500053Z" stroke="#FECD07" stroke-width="1.33333" stroke-miterlimit="8" fill="#FECD07" fill-rule="evenodd"/><path d="M231.5 0.500053 251.349 0.500053 251.349 13.7911 255.97 9.97864C264.828 3.99445 275.506 0.500158 287 0.500158 317.652 0.500158 342.5 25.3483 342.5 56.0001L342.5 56.0022 342.5 111.5 287.001 111.5 287 111.5 286.999 111.5 231.5 111.5 231.5 111.5 231.5 111.5Z" stroke="#FECD07" stroke-width="1.33333" stroke-miterlimit="8" fill="#FECD07" fill-rule="evenodd"/><path d="M411.15 133.673C391.768 133.673 376.056 149.513 376.056 169.053 376.056 188.592 391.768 204.432 411.15 204.432 430.532 204.432 446.244 188.592 446.244 169.053 446.244 149.513 430.532 133.673 411.15 133.673ZM411.5 0.500053C441.876 0.500053 466.5 25.3247 466.5 55.9474L466.196 58.9911 466.232 58.9911 466.232 166.376 466.5 169.053C466.5 199.675 441.876 224.5 411.5 224.5 381.124 224.5 356.5 199.675 356.5 169.053 356.5 138.43 381.124 113.605 411.5 113.605 422.891 113.605 433.473 117.096 442.251 123.075L446.562 126.661 446.562 98.3393 442.251 101.925C433.473 107.904 422.891 111.395 411.5 111.395 381.124 111.395 356.5 86.5702 356.5 55.9474 356.5 25.3247 381.124 0.500053 411.5 0.500053Z" stroke="#FECD07" stroke-width="1.33333" stroke-miterlimit="8" fill="#FECD07" fill-rule="evenodd"/><path d="M645.164 101.962 644.343 102.644C634.842 109.181 603.131 116.768 586.471 112.865 569.811 108.961 552.268 91.9054 544.383 79.2229 536.499 66.5405 538.89 46.7505 539.164 36.7704 539.438 26.7902 542.834 21.3606 546.028 19.3422 551.11 20.6476 555.348 23.4658 557.72 27.4291 560.092 31.3923 552.254 28.4475 560.259 43.1216 568.264 57.7958 597.295 94.3687 632.695 96.8623L645.164 101.962Z" stroke="#000000" stroke-width="3" stroke-miterlimit="8" fill-rule="evenodd"/><path d="M95.8782 0 96.5163 0.914286C102.488 11.3635 107.493 44.9297 101.849 61.8386 96.204 78.7475 76.6832 95.3623 62.6482 102.368 48.6132 109.373 28.0806 105.074 17.6393 103.872 7.1979 102.67 1.81953 98.6504 0 95.1543 1.8421 90.0071 5.19234 85.8734 9.56966 83.7796 13.947 81.6858 10.1289 89.5387 26.2639 82.5917 42.399 75.6446 83.4581 48.9183 89.3687 12.4547L95.8782 0Z" stroke="#000000" stroke-width="3" stroke-miterlimit="8" fill-rule="evenodd" transform="matrix(-0.198454 0.98011 0.98011 0.198454 450.747 -0.948229)"/><path d="M0 114.346 13.3678 115.822 14.9898 101.132 31.2218 100.247 31.397 100.373C34.2741 101.965 38.2291 103.271 43.4498 103.872 53.8911 105.074 74.4237 109.373 88.4587 102.368 102.494 95.3623 122.014 78.7475 127.659 61.8386 133.304 44.9298 128.299 11.3635 122.327 0.914226L121.689 0 115.179 12.4547C109.269 48.9183 68.2094 75.6446 52.0744 82.5916 35.9394 89.5388 39.7575 81.6858 35.3802 83.7796 34.2858 84.3031 33.2556 84.954 32.2972 85.7164L29.7545 88.214 16.3355 88.9463 18.0124 73.7609 4.64472 72.2848Z" stroke="#000000" stroke-width="3" stroke-miterlimit="8" fill-rule="evenodd" transform="matrix(0.161514 0.98687 0.98687 -0.161514 449.039 10.2077)"/></g></svg>