<svg width="241" height="199" xmlns="http://www.w3.org/2000/svg" xmlns:xlink="http://www.w3.org/1999/xlink" overflow="hidden"><defs><clipPath id="clip0"><rect x="464" y="194" width="241" height="199"/></clipPath></defs><g clip-path="url(#clip0)" transform="translate(-464 -194)"><path d="M598.94 249.67 571.738 257.277 574.151 265.94 583.972 263.193 584.49 267.996 582.022 268.792C580.54 269.594 579.266 270.653 578.291 271.949 576.342 274.54 581.984 273.079 575.303 282.732 568.622 292.385 545.702 315.748 521.068 314.783L512.059 317.396 512.573 317.936C518.617 323.236 539.91 330.971 551.718 329.516 553.194 329.334 554.695 329.009 556.206 328.564L559.975 327.175 559.866 327.288C555.299 331.379 550.092 334.722 544.247 336.682L536.746 342.323 537.417 342.645C544.943 345.458 567.59 345.135 578.118 339.584 583.382 336.808 588.224 331.751 592.137 326.136L596.415 318.915 599.102 321.571C604.077 325.808 609.783 329.312 615.343 330.617 626.461 333.228 647.625 328.154 653.966 323.782L654.514 323.327 646.192 319.917C625.52 318.457 608.102 299.551 600.491 288.274L598.32 284.745 596.725 279.474 595.586 276.435 595.592 276.048C596.034 274.983 596.946 274.812 596.155 273.487 595.363 272.162 594.26 271.028 592.931 270.117L592.834 270.073 591.853 260.989 601.353 258.332ZM520.878 194.007C544.692 194.355 570.039 208.745 584 241.637 633.638 124.688 827.227 241.637 584 392 409.181 283.927 460.021 193.115 520.878 194.007Z" fill-rule="evenodd"/></g></svg>