<svg width="236" height="270" xmlns="http://www.w3.org/2000/svg" xmlns:xlink="http://www.w3.org/1999/xlink" overflow="hidden"><defs><clipPath id="clip0"><rect x="877" y="117" width="236" height="270"/></clipPath></defs><g clip-path="url(#clip0)" transform="translate(-877 -117)"><path d="M1073.3 147.312C1048.29 127.271 1011.77 131.298 991.732 156.307 971.692 181.315 975.718 217.834 1000.73 237.875 1025.74 257.916 1062.25 253.889 1082.3 228.881 1102.34 203.872 1098.31 167.353 1073.3 147.312ZM1083.02 135.189C1114.72 160.595 1119.82 206.892 1094.42 238.596 1075.36 262.373 1044.56 271.189 1016.97 263.393L1012.64 261.689 998.066 292.274 985.888 301.809 983.818 300.151 900.499 383.963 879.987 367.525 943.631 267.946 941.562 266.288 948.214 252.325 974.889 231.439 972.282 227.581C958.662 202.356 960.555 170.369 979.609 146.591 1005.02 114.888 1051.31 109.783 1083.02 135.189Z" stroke="#0D0D0D" stroke-width="3" stroke-miterlimit="8" fill="#7F7F7F" fill-rule="evenodd"/><path d="M1049.71 154.5 1051.44 160.628 1044.63 162.507 1045.34 168.934 1045.41 168.964C1046.36 169.609 1047.15 170.411 1047.71 171.349 1048.28 172.286 1047.63 172.407 1047.31 173.16L1047.31 173.434 1048.12 175.584 1049.26 179.313 1050.82 181.809C1056.27 189.786 1068.74 203.161 1083.54 204.193L1089.5 206.606 1089.11 206.928C1084.57 210.02 1069.41 213.61 1061.45 211.763 1057.47 210.84 1053.39 208.361 1049.82 205.363L1047.9 203.485 1044.84 208.593C1042.04 212.565 1038.57 216.143 1034.8 218.106 1027.26 222.033 1011.05 222.261 1005.66 220.272L1005.18 220.044 1010.55 216.053C1014.73 214.667 1018.46 212.302 1021.73 209.408L1021.87 209.269 1015.9 210.984C1007.44 212.013 992.195 206.542 987.868 202.792L987.5 202.411 993.951 200.562C1011.59 201.245 1028 184.717 1032.78 177.889 1037.57 171.06 1033.53 172.093 1034.92 170.26 1035.62 169.344 1036.53 168.595 1037.59 168.028L1039.36 167.464 1038.99 164.066 1031.96 166.009 1030.23 159.882Z" stroke="#0D0D0D" stroke-width="3" stroke-miterlimit="8" fill="#7F7F7F" fill-rule="evenodd"/></g></svg>