<svg width="156" height="342" xmlns="http://www.w3.org/2000/svg" xmlns:xlink="http://www.w3.org/1999/xlink" overflow="hidden"><defs><clipPath id="clip0"><rect x="808" y="126" width="156" height="342"/></clipPath></defs><g clip-path="url(#clip0)" transform="translate(-808 -126)"><path d="M896.432 151.919 876.533 157.473 878.299 163.798 885.483 161.792 885.862 165.302 884.065 165.881C882.981 166.466 882.049 167.239 881.336 168.185 879.91 170.077 884.037 169.011 879.149 176.058 874.262 183.106 857.495 200.164 839.475 199.459L832.884 201.367 833.26 201.761C837.681 205.631 853.258 211.278 861.896 210.215L867.983 208.449 867.849 208.588C864.508 211.575 860.698 214.016 856.423 215.447L850.935 219.565 851.426 219.801C856.932 221.854 873.499 221.619 881.2 217.566 885.051 215.539 888.593 211.847 891.456 207.748L894.574 202.494 896.556 204.449C900.195 207.543 904.369 210.101 908.436 211.054 916.57 212.96 932.051 209.256 936.69 206.064L937.091 205.731 931.004 203.241C915.881 202.176 903.139 188.372 897.572 180.139L895.995 177.581 894.812 173.679 893.984 171.473 893.988 171.213C894.311 170.435 894.978 170.31 894.399 169.343 893.82 168.376 893.014 167.548 892.041 166.882L891.969 166.85 891.248 160.183 898.197 158.243ZM886 126C922.451 126 952 155.549 952 192 952 228.451 922.451 258 886 258 849.549 258 820 228.451 820 192 820 155.549 849.549 126 886 126Z" fill="#333333" fill-rule="evenodd"/><path d="M939.59 250 943.576 250.399C955.232 252.769 964 263.017 964 275.299L964 376.959C964 387.487 957.558 396.519 948.378 400.378L945.273 401 945.273 447.368C945.273 458.21 936.427 467 925.515 467L846.485 467C835.573 467 826.727 458.21 826.727 447.368L826.727 401 823.623 400.378C814.442 396.519 808 387.487 808 376.959L808 275.299C808 263.017 816.768 252.769 828.424 250.399L832.41 250 838.782 255.224C852.261 264.272 868.509 269.555 886 269.555 903.49 269.555 919.739 264.272 933.218 255.224L939.59 250Z" fill="#333333" fill-rule="evenodd"/></g></svg>