<svg width="157" height="342" xmlns="http://www.w3.org/2000/svg" xmlns:xlink="http://www.w3.org/1999/xlink" overflow="hidden"><defs><clipPath id="clip0"><rect x="621" y="126" width="157" height="342"/></clipPath></defs><g clip-path="url(#clip0)" transform="translate(-621 -126)"><path d="M709.853 152.722 690.105 158.235 691.857 164.511 698.986 162.521 699.363 166.004 697.579 166.579C696.503 167.159 695.578 167.927 694.871 168.866 693.456 170.743 697.552 169.685 692.701 176.679 687.851 183.673 671.211 200.602 653.327 199.902L646.787 201.796 647.16 202.187C651.547 206.027 667.006 211.632 675.578 210.577L681.619 208.824 681.486 208.962C678.17 211.927 674.39 214.35 670.147 215.769L664.701 219.857 665.188 220.09C670.652 222.128 687.094 221.895 694.737 217.872 698.558 215.861 702.073 212.197 704.914 208.128L708.009 202.915 709.976 204.855C713.587 207.925 717.73 210.464 721.766 211.41 729.838 213.301 745.202 209.625 749.806 206.457L750.204 206.127 744.163 203.656C729.154 202.599 716.509 188.9 710.984 180.729L709.419 178.191 708.245 174.318 707.423 172.129 707.427 171.87C707.748 171.098 708.41 170.975 707.836 170.015 707.261 169.055 706.46 168.233 705.496 167.573L705.424 167.541 704.708 160.924 711.605 158.999ZM699.5 127C735.675 127 765 156.325 765 192.5 765 228.675 735.675 258 699.5 258 663.325 258 634 228.675 634 192.5 634 156.325 663.325 127 699.5 127Z" fill="#FECD07" fill-rule="evenodd"/><path d="M752.746 250 756.707 250.401C768.288 252.782 777 263.076 777 275.415L777 377.544C777 388.12 770.599 397.194 761.478 401.071L758.393 401.696 758.393 448.277C758.393 459.17 749.604 468 738.762 468L660.238 468C649.396 468 640.607 459.17 640.607 448.277L640.607 401.696 637.522 401.071C628.401 397.194 622 388.12 622 377.544L622 275.415C622 263.076 630.712 252.782 642.293 250.401L646.254 250 652.585 255.248C665.977 264.338 682.122 269.645 699.5 269.645 716.878 269.645 733.023 264.338 746.415 255.248L752.746 250Z" fill="#FECD07" fill-rule="evenodd"/></g></svg>